<?xml version="1.0" standalone="no"?>
<!DOCTYPE svg PUBLIC "-//W3C//DTD SVG 20010904//EN"
 "http://www.w3.org/TR/2001/REC-SVG-20010904/DTD/svg10.dtd">
<svg version="1.0" xmlns="http://www.w3.org/2000/svg"
 width="346.000000pt" height="442.000000pt" viewBox="0 0 346.000000 442.000000"
 preserveAspectRatio="xMidYMid meet">

<g transform="translate(0.000000,442.000000) scale(0.100000,-0.100000)"
fill="#000000" stroke="none">
<path d="M1670 4144 c0 -8 -4 -12 -10 -9 -5 3 -10 2 -10 -4 0 -6 -7 -8 -15 -5
-10 4 -15 0 -15 -11 0 -9 -4 -14 -9 -10 -5 3 -16 -4 -24 -16 -10 -14 -17 -17
-22 -9 -4 7 -16 10 -26 7 -11 -3 -23 2 -29 11 -6 12 -9 13 -10 3 0 -7 -6 -11
-15 -7 -8 3 -15 1 -15 -3 0 -5 -9 -7 -20 -4 -15 4 -20 0 -20 -14 0 -27 -41
-45 -58 -27 -8 9 -22 12 -37 8 -13 -3 -33 0 -45 6 -18 10 -24 9 -31 -1 -6 -10
-11 -10 -25 2 -10 8 -5 -3 10 -24 21 -28 26 -41 18 -49 -8 -8 -15 -8 -25 1 -8
6 -21 9 -29 6 -8 -3 -23 3 -33 15 -21 23 -37 27 -29 6 8 -20 -14 -56 -30 -50
-7 3 -16 -2 -20 -12 -5 -12 -9 -14 -20 -5 -21 18 -27 -11 -13 -60 l12 -42 -54
-54 c-33 -34 -56 -50 -61 -43 -3 6 -6 -5 -6 -25 1 -22 6 -35 15 -35 8 0 11 -6
7 -15 -7 -18 5 -20 22 -3 17 17 14 -3 -3 -26 -12 -16 -16 -17 -29 -3 -8 8 -18
26 -22 41 -4 18 -12 25 -25 23 -28 -5 -33 -14 -15 -32 9 -9 16 -23 16 -30 0
-8 7 -18 16 -23 8 -5 18 -24 20 -43 8 -47 19 -56 44 -34 24 22 27 13 3 -10
-13 -14 -14 -18 -3 -25 8 -5 18 -6 22 -4 4 3 8 -2 8 -11 0 -9 5 -13 10 -10 6
3 10 -3 10 -14 0 -15 5 -19 18 -15 15 5 14 4 -2 -10 -16 -13 -18 -20 -8 -40 8
-18 8 -27 0 -32 -7 -4 -5 -10 6 -16 14 -8 15 -13 5 -24 -16 -19 5 -19 25 1 14
15 46 11 46 -6 0 -5 -15 -16 -32 -25 -78 -39 -88 -74 -33 -120 19 -16 41 -45
49 -65 19 -48 26 -51 54 -28 17 13 26 34 32 79 5 34 20 80 34 104 14 24 37 92
51 151 34 144 81 209 190 261 80 38 383 14 510 -41 64 -27 99 -39 152 -49 72
-15 92 -39 99 -126 6 -74 17 -115 46 -180 12 -25 23 -76 26 -113 4 -62 7 -69
30 -78 18 -7 27 -6 33 2 7 12 20 104 24 184 2 28 6 97 10 155 6 102 6 106 -19
139 -23 30 -24 36 -12 60 7 14 12 40 10 56 -2 17 -5 62 -7 100 -4 75 -27 133
-72 181 -14 15 -25 31 -25 35 0 5 -6 9 -14 9 -7 0 -19 7 -26 15 -7 8 -16 13
-20 10 -4 -3 -20 7 -34 20 -30 28 -46 34 -26 10 7 -9 10 -18 7 -22 -4 -3 1
-12 11 -20 21 -18 -3 -7 -38 17 -43 29 -94 42 -124 31 -27 -11 -36 -31 -12
-31 7 0 19 -7 26 -15 8 -9 9 -15 2 -15 -6 0 -14 5 -18 11 -4 7 -21 9 -46 5
-45 -7 -103 7 -139 35 -15 12 -17 17 -6 13 13 -5 16 -2 10 12 -5 14 -3 16 11
11 10 -4 15 -3 11 3 -3 6 -14 10 -24 10 -9 0 -23 6 -30 13 -11 10 -12 7 -7
-14 9 -39 -16 -43 -40 -7 -28 43 -94 66 -94 32z m174 -93 c10 -15 -22 -20 -34
-5 -10 11 -9 14 8 14 12 0 23 -4 26 -9z"/>
<path d="M1172 4088 c-18 -18 -14 -28 12 -28 17 0 23 5 22 17 -3 22 -18 27
-34 11z"/>
<path d="M977 3916 c-6 -15 1 -26 15 -26 11 0 10 27 -1 34 -5 3 -11 0 -14 -8z"/>
<path d="M1023 3852 c-13 -2 -23 -8 -23 -13 0 -9 37 -3 49 7 8 7 -4 10 -26 6z"/>
<path d="M933 3814 c-13 -28 4 -46 21 -22 6 8 17 17 25 19 9 3 5 8 -11 16 -21
9 -25 8 -35 -13z"/>
<path d="M1930 3288 c0 -5 -6 -8 -12 -6 -23 4 -53 -12 -71 -37 l-18 -25 31 0
c18 0 29 -4 25 -10 -7 -11 -123 -11 -230 0 l-70 7 60 1 60 2 -27 27 c-22 21
-39 27 -87 31 -85 6 -165 -6 -189 -28 -11 -10 -23 -16 -26 -13 -3 4 -6 1 -6
-4 0 -6 6 -14 13 -17 8 -4 9 -8 1 -11 -6 -3 -20 -13 -30 -21 -18 -15 -18 -15
1 -8 32 12 336 17 347 6 13 -13 0 -132 -14 -132 -5 0 -7 4 -4 8 3 5 -6 19 -19
30 -14 12 -25 28 -25 34 0 7 -16 21 -35 30 -38 19 -120 18 -151 -1 -16 -10
-13 -11 19 -6 23 4 37 2 37 -5 0 -5 -9 -10 -20 -10 -11 0 -37 -7 -57 -15 -36
-15 -36 -15 -18 5 25 28 10 25 -31 -6 -26 -20 -32 -30 -23 -40 6 -7 17 -10 25
-7 22 8 64 -6 64 -22 0 -10 10 -15 29 -15 16 0 31 -6 34 -14 3 -8 18 -14 34
-14 15 0 33 -1 38 -2 6 -2 22 0 38 4 20 6 27 14 27 34 0 19 3 23 11 15 8 -8 8
-17 -1 -33 -9 -16 -9 -25 0 -35 9 -11 7 -22 -10 -50 -30 -49 -73 -69 -145 -69
-77 -1 -145 25 -185 70 -16 19 -30 30 -30 24 0 -18 52 -62 105 -86 35 -17 68
-24 112 -24 61 0 69 -6 50 -37 -5 -8 4 -18 29 -28 20 -8 38 -15 40 -15 1 0 15
-5 31 -11 l27 -10 -44 -21 c-56 -26 -150 -38 -133 -17 6 8 14 24 17 36 7 21 5
20 -21 -5 -15 -16 -40 -51 -55 -78 -25 -47 -26 -54 -19 -129 4 -44 4 -82 -1
-83 -4 -2 -5 -9 -1 -15 13 -21 11 -35 -5 -50 -32 -27 -50 -27 -71 -2 -22 28
-46 32 -55 9 -9 -25 -7 -34 8 -34 8 0 17 -4 21 -9 3 -6 -6 -6 -24 -1 -26 7
-29 6 -23 -10 7 -20 113 -142 146 -169 11 -9 31 -27 45 -41 14 -13 31 -23 37
-22 16 3 27 -29 15 -41 -6 -6 -7 -17 -1 -27 7 -14 4 -16 -23 -12 -20 3 -49 20
-76 46 -70 66 -29 9 56 -79 99 -102 219 -205 239 -205 8 0 38 -10 65 -21 l49
-22 38 25 c90 61 264 253 309 343 l15 30 -32 -30 c-18 -16 -29 -24 -25 -16 5
9 4 12 -3 7 -7 -4 -12 -15 -12 -24 0 -15 -2 -15 -10 -2 -14 21 -12 40 3 37 6
-1 11 4 9 11 -1 7 13 26 32 43 40 34 108 138 142 215 36 82 56 170 64 284 4
58 13 115 20 127 12 18 12 28 0 62 -9 28 -11 67 -7 126 5 70 4 85 -8 85 -25 0
-30 -2 -28 -10 1 -4 7 -45 12 -91 13 -108 -9 -367 -30 -353 -5 3 -9 -10 -9
-28 -1 -55 -22 -91 -53 -92 -24 -2 -27 2 -27 29 -1 25 -2 27 -11 13 -5 -10 -7
-34 -3 -53 6 -33 8 -35 23 -20 40 36 34 11 -9 -35 -25 -27 -51 -50 -57 -50 -6
0 -13 -5 -15 -12 -2 -6 -16 -12 -31 -12 -21 -1 -27 3 -28 19 0 11 -3 29 -6 40
-9 35 -5 108 7 115 7 4 8 18 4 33 -3 16 -2 27 4 27 17 0 1 39 -19 45 -11 4
-17 11 -13 16 6 10 -25 55 -77 111 -22 24 -29 40 -26 60 2 15 1 29 -2 31 -3 2
0 2 6 1 103 -25 196 -6 263 53 39 36 42 42 47 103 9 117 -34 169 -152 185 -28
3 -61 8 -75 11 -48 10 6 26 62 19 36 -5 49 -4 44 4 -4 6 -1 11 8 11 20 0 11
22 -16 39 -25 15 -228 23 -228 9z m261 -119 c67 -21 82 -45 81 -141 l0 -83
-38 -31 c-46 -39 -93 -54 -168 -54 -81 0 -140 36 -165 102 -13 35 7 55 37 37
31 -19 88 0 85 29 -2 17 3 22 20 23 12 1 27 2 32 4 6 1 29 3 53 3 23 1 42 6
42 10 0 5 -25 21 -55 36 -40 21 -65 27 -95 24 -40 -4 -53 5 -24 16 9 3 28 7
42 7 15 1 2 5 -28 10 -45 8 -57 7 -66 -6 -14 -19 -28 -20 -20 0 3 9 0 15 -9
15 -9 0 -15 -13 -17 -37 -4 -47 -24 -54 -30 -11 -8 52 -2 58 64 57 32 -1 62 2
66 6 9 10 145 -2 193 -16z m-351 -45 c0 -8 -7 -14 -15 -14 -12 0 -12 -8 5 -50
11 -27 34 -77 52 -111 18 -33 41 -76 51 -95 20 -36 15 -74 -8 -74 -8 0 -25 11
-39 25 -31 31 -40 31 -68 3 l-23 -23 48 -3 c45 -3 61 -15 35 -25 -7 -3 1 -6
19 -6 17 -1 35 4 38 9 10 16 21 12 54 -19 31 -29 42 -71 19 -67 -38 6 -87 29
-92 41 -3 8 -11 15 -19 15 -7 0 -19 6 -25 13 -7 6 -32 13 -55 13 -23 1 -50 5
-59 9 -13 5 -18 3 -18 -9 0 -20 -16 -21 -24 -1 -3 8 -13 15 -23 15 -14 0 -15
2 -5 9 7 4 24 6 38 3 32 -6 31 13 -2 34 -24 16 -26 16 -56 -6 -57 -42 -93 16
-42 67 35 35 107 170 98 184 -3 6 -3 25 0 44 5 25 13 35 29 37 41 6 87 -4 87
-18z m150 -29 c0 -8 -4 -15 -10 -15 -5 0 -7 7 -4 15 4 8 8 15 10 15 2 0 4 -7
4 -15z m-530 -11 c0 -8 -4 -12 -10 -9 -5 3 -10 10 -10 16 0 5 5 9 10 9 6 0 10
-7 10 -16z m110 6 c0 -5 -4 -10 -10 -10 -5 0 -10 5 -10 10 0 6 5 10 10 10 6 0
10 -4 10 -10z m543 -5 c1 -5 -6 -11 -15 -13 -11 -2 -18 3 -18 13 0 17 30 18
33 0z m-200 -52 c-3 -6 -11 -9 -19 -6 -20 7 -17 19 5 19 11 0 17 -6 14 -13z
m-133 -372 c35 -10 12 -20 -38 -18 -27 1 -42 6 -42 14 0 14 38 16 80 4z m-140
-6 c0 -6 -69 -35 -84 -35 -21 1 39 40 62 40 12 0 22 -2 22 -5z m55 -72 c6 -17
7 -17 16 0 10 17 40 23 52 10 4 -4 32 -6 61 -5 40 0 56 -3 60 -14 3 -8 -1 -17
-11 -21 -10 -4 -19 -1 -21 6 -3 9 -7 8 -16 -4 -13 -18 -111 -31 -121 -16 -9
16 -25 13 -25 -3 0 -16 52 -24 153 -22 44 1 67 -3 67 -10 0 -22 -78 -38 -176
-37 l-72 1 2 -36 c1 -33 5 -37 66 -69 66 -34 85 -37 85 -13 0 7 14 18 30 23
45 15 58 27 44 43 -6 8 -18 14 -25 14 -8 0 -14 5 -14 10 0 6 5 10 11 10 6 0
25 11 43 25 42 32 79 37 84 11 2 -11 10 -25 16 -32 18 -18 8 -72 -15 -79 -10
-4 -19 -14 -19 -24 0 -25 -26 -46 -42 -34 -7 5 -28 10 -46 11 -29 2 -33 0 -27
-18 5 -15 -1 -24 -24 -38 -17 -9 -31 -21 -31 -25 0 -5 -14 0 -30 10 -26 15
-33 16 -52 4 -19 -12 -24 -11 -39 8 -9 11 -26 21 -36 21 -22 0 -86 53 -76 63
3 4 1 7 -5 7 -7 0 -11 4 -9 8 1 4 -9 19 -23 33 -14 13 -25 31 -24 39 1 26 15
60 25 60 5 0 9 7 9 15 0 18 1 18 34 5 17 -6 26 -6 26 0 0 6 19 10 42 10 41 0
41 0 22 21 -10 11 -20 16 -22 10 -5 -15 -22 -3 -22 15 0 11 6 13 20 9 11 -4
20 -2 20 4 0 18 27 12 35 -6z m235 -283 c3 0 -10 -7 -29 -16 -19 -8 -36 -12
-39 -9 -3 3 0 5 7 5 7 0 11 6 8 14 -5 13 12 15 53 6z"/>
<path d="M2130 3136 c0 -2 8 -10 18 -17 15 -13 16 -12 3 4 -13 16 -21 21 -21
13z"/>
<path d="M1915 2380 c-41 -43 -24 -48 22 -6 24 23 32 36 22 36 -8 0 -28 -13
-44 -30z"/>
<path d="M1305 3150 c-10 -11 -16 -22 -14 -24 2 -2 12 7 22 20 22 29 17 32 -8
4z"/>
<path d="M1670 3105 c7 -9 15 -13 17 -11 7 7 -7 26 -19 26 -6 0 -6 -6 2 -15z"/>
<path d="M1278 3058 c5 -71 10 -77 11 -15 0 31 -2 57 -7 57 -4 0 -6 -19 -4
-42z"/>
<path d="M1174 3065 c-8 -21 6 -41 17 -24 12 19 11 39 -1 39 -6 0 -13 -7 -16
-15z"/>
<path d="M2396 3018 c-12 -36 -13 -43 -6 -63 6 -17 9 -14 15 17 8 41 1 75 -9
46z"/>
<path d="M1122 2974 c-1 -20 2 -43 7 -51 6 -12 10 -6 15 22 5 26 3 42 -6 51
-11 11 -13 7 -16 -22z"/>
<path d="M2272 2530 c0 -14 2 -19 5 -12 2 6 2 18 0 25 -3 6 -5 1 -5 -13z"/>
<path d="M1256 2385 c4 -8 8 -15 10 -15 2 0 4 7 4 15 0 8 -4 15 -10 15 -5 0
-7 -7 -4 -15z"/>
<path d="M2376 2083 c4 -16 11 -32 16 -38 5 -5 48 -12 96 -14 77 -3 85 -2 73
12 -12 15 -151 67 -179 67 -8 0 -10 -9 -6 -27z"/>
<path d="M1132 2065 c-45 -14 -85 -42 -77 -55 2 -4 24 -10 48 -13 23 -3 51 -9
60 -13 13 -5 21 2 32 30 29 69 19 77 -63 51z"/>
<path d="M2394 1958 c3 -35 8 -107 12 -162 l6 -99 -23 6 c-102 24 -190 51
-247 76 -92 40 -132 47 -171 27 -31 -17 -44 -40 -16 -30 26 11 16 -13 -20 -45
-28 -24 -41 -29 -67 -25 -18 3 -78 7 -133 9 -88 3 -101 5 -117 25 -16 20 -21
21 -55 10 -46 -15 -268 -136 -284 -156 -9 -11 -8 -18 2 -30 17 -20 15 -140 -2
-194 -34 -105 -51 -141 -65 -136 -17 7 -18 -6 -1 -23 10 -10 9 -11 -5 -6 -19
7 -34 78 -25 120 2 14 0 28 -5 31 -5 3 -7 13 -4 21 3 8 1 23 -4 34 -7 13 -7
19 0 19 5 0 10 4 10 10 0 5 -6 9 -12 7 -9 -1 -12 10 -11 36 1 20 -2 37 -8 37
-6 0 -7 5 -4 10 16 27 -19 4 -71 -45 -33 -30 -67 -55 -78 -55 -10 0 -38 -13
-63 -30 -24 -16 -49 -30 -54 -30 -6 0 -7 -5 -4 -10 4 -6 2 -16 -3 -23 -6 -7
-15 -28 -20 -47 -10 -33 -10 -32 -11 27 l-1 62 107 60 c114 63 136 80 159 122
21 42 16 199 -7 199 -5 0 -7 18 -5 40 6 57 -8 58 -40 4 -20 -34 -24 -48 -15
-54 15 -8 25 -146 16 -199 -6 -32 -7 -33 -24 -15 -14 15 -16 24 -8 41 5 12 6
30 2 40 -6 15 -9 12 -18 -16 -15 -44 -39 -55 -32 -14 8 39 -8 61 -30 43 -13
-10 -13 -15 -3 -21 10 -7 10 -9 -2 -9 -8 0 -21 4 -29 9 -13 8 -13 12 0 29 8
10 42 56 77 102 34 46 62 88 62 93 0 5 -15 7 -35 4 -19 -3 -37 -2 -40 3 -5 8
54 48 107 72 15 6 29 20 31 30 5 16 0 17 -36 12 -23 -4 -57 -13 -75 -22 -35
-15 -75 -59 -67 -72 3 -4 -2 -10 -10 -14 -8 -3 -15 -10 -15 -16 0 -6 5 -8 11
-4 7 4 9 2 5 -7 -3 -8 -9 -21 -12 -30 -3 -8 -37 -35 -77 -60 -74 -46 -158
-123 -216 -199 -19 -25 -57 -63 -84 -85 -27 -22 -79 -68 -115 -103 -64 -63
-65 -63 -57 -30 4 18 10 51 14 74 4 22 17 50 28 61 11 11 22 24 24 29 2 5 29
31 59 58 30 27 54 53 52 58 -1 6 9 21 23 34 14 13 22 24 17 24 -4 0 -13 10
-18 23 -6 12 -9 16 -7 10 1 -7 -7 -13 -19 -13 -20 0 -95 -69 -130 -119 -9 -13
-28 -25 -42 -27 -23 -2 -26 1 -26 27 0 16 4 29 9 29 5 0 11 9 14 20 3 11 4 20
2 20 -8 0 -110 -66 -113 -72 -4 -9 -32 -11 -32 -2 0 3 9 18 19 33 30 41 33
105 4 94 -11 -4 -12 -8 -5 -11 17 -5 15 -19 -5 -26 -10 -3 -23 -8 -30 -12 -7
-3 -14 8 -18 28 -6 31 -12 53 -30 103 -15 42 -57 -183 -55 -295 2 -114 4 -124
24 -141 16 -13 17 -19 7 -37 -12 -22 -26 -28 -34 -14 -5 9 1 -13 8 -31 8 -19
-26 -18 -49 2 -18 16 -18 10 -14 -194 5 -226 18 -293 83 -441 96 -217 305
-419 529 -510 141 -57 253 -74 496 -74 l212 0 -6 28 c-14 65 -55 315 -67 406
-20 164 1 707 41 1046 16 136 46 159 117 91 l29 -28 12 26 c7 14 12 32 12 40
0 10 10 5 33 -15 17 -17 48 -42 67 -56 41 -31 110 -93 110 -99 0 -2 -20 -4
-44 -4 -34 0 -42 3 -34 12 7 9 -2 27 -32 63 -23 28 -44 49 -46 47 -2 -2 9 -30
25 -63 33 -66 44 -163 23 -201 -7 -13 -10 -23 -7 -23 3 0 -9 -25 -26 -55 -45
-80 -67 -163 -84 -314 -8 -74 -13 -136 -11 -138 2 -2 68 59 147 135 150 144
226 208 235 199 3 -3 -18 -24 -48 -47 -29 -23 -117 -104 -195 -180 l-141 -138
-2 -239 c-1 -131 -2 -241 -1 -244 1 -4 58 52 129 124 249 255 304 308 310 302
3 -3 -94 -106 -216 -228 l-222 -222 0 -113 0 -112 133 0 132 0 104 104 104
105 -13 209 c-7 116 -10 234 -7 264 3 33 2 45 -3 33 -7 -17 -9 -16 -10 10 -4
157 -22 331 -36 363 -9 20 -37 78 -60 129 -24 50 -44 102 -44 114 0 36 39 107
74 134 17 13 49 47 71 75 51 65 221 180 188 128 -4 -7 5 -5 20 5 33 21 46 22
62 0 8 -11 25 -16 49 -15 l36 1 0 -138 c0 -77 4 -141 9 -143 5 -1 14 -70 20
-153 6 -82 16 -206 22 -275 6 -69 9 -192 6 -275 -4 -159 -19 -220 -85 -350
-20 -39 -108 -238 -139 -313 -5 -12 40 -13 263 -9 252 4 275 6 359 30 347 99
594 343 702 692 l27 90 3 435 c2 381 1 429 -11 390 -26 -83 -28 -90 -35 -90
-3 0 -4 46 -3 102 l4 101 -26 -28 c-14 -15 -26 -32 -26 -36 0 -16 -26 -10 -48
11 -27 25 -38 25 -45 -1 -5 -18 -8 -19 -29 -8 -27 15 -19 13 -131 33 l-88 16
-30 -30 -30 -30 -42 28 c-23 15 -46 32 -50 39 -4 7 -17 13 -27 13 -11 0 -20 4
-20 9 0 10 -75 57 -123 78 -23 10 -29 10 -33 -2 -3 -7 -1 -23 5 -34 6 -11 14
-40 17 -65 4 -40 3 -44 -15 -39 -11 3 -39 29 -63 59 -23 29 -55 58 -71 63 -30
11 -57 34 -57 49 0 6 -3 12 -8 14 -4 2 -22 27 -41 56 -18 28 -35 52 -38 52 -2
0 -2 -28 1 -62z m-454 -312 c0 -5 -7 -1 -15 10 -8 10 -14 24 -14 29 0 6 6 1
14 -9 8 -11 15 -24 15 -30z m-998 -118 c16 -23 17 -30 6 -48 -7 -11 -20 -23
-29 -25 -9 -3 -24 -14 -34 -25 -10 -11 -22 -20 -27 -20 -10 0 -11 33 0 46 5 5
19 36 32 68 13 33 26 53 28 45 3 -8 13 -26 24 -41z m758 -91 c0 -2 -18 -21
-40 -42 -22 -21 -40 -33 -40 -26 0 15 54 71 69 71 6 0 11 -1 11 -3z m-1565
-48 c11 -17 -1 -21 -15 -4 -8 9 -8 15 -2 15 6 0 14 -5 17 -11z m871 -56 c-10
-10 -19 5 -10 18 6 11 8 11 12 0 2 -7 1 -15 -2 -18z"/>
<path d="M1640 1770 c0 -5 9 -10 21 -10 11 0 17 5 14 10 -3 6 -13 10 -21 10
-8 0 -14 -4 -14 -10z"/>
<path d="M2960 1739 c0 -5 5 -7 10 -4 6 3 10 8 10 11 0 2 -4 4 -10 4 -5 0 -10
-5 -10 -11z"/>
<path d="M3440 1735 c-10 -12 -10 -15 4 -15 9 0 16 7 16 15 0 8 -2 15 -4 15
-2 0 -9 -7 -16 -15z"/>
<path d="M1180 1530 c-7 -13 -7 -20 -1 -20 6 0 15 9 21 20 7 13 7 20 1 20 -6
0 -15 -9 -21 -20z"/>
<path d="M1850 113 l-85 -88 94 -3 c51 -1 96 -1 98 2 7 7 -8 176 -16 176 -3 0
-45 -39 -91 -87z"/>
</g>
</svg>
